<svg width="23" height="19" viewBox="0 0 23 19" fill="none" xmlns="http://www.w3.org/2000/svg">
<path d="M12.3228 19V13.5714H15.6089L11.5013 8.14286L7.39368 13.5714H10.6798V19H6.57216V18.9548C6.43353 18.9632 6.3026 19 6.1614 19C4.5273 19 2.96012 18.2851 1.80463 17.0125C0.649146 15.7399 0 14.014 0 12.2143C0.00212999 10.553 0.559856 8.95077 1.56665 7.71366C2.57345 6.47655 3.95875 5.69124 5.45797 5.50774C5.72756 3.9595 6.47819 2.56294 7.58097 1.55788C8.68376 0.552831 10.0699 0.00200523 11.5013 0C12.9331 0.00134865 14.3199 0.551875 15.4232 1.55698C16.5265 2.56209 17.2775 3.95902 17.5472 5.50774C19.0455 5.69254 20.4295 6.4784 21.4353 7.71538C22.441 8.95237 22.998 10.5539 23 12.2143C23 14.014 22.3509 15.7399 21.1954 17.0125C20.0399 18.2851 18.4727 19 16.8386 19C16.7025 19 16.569 18.9632 16.4278 18.9548V19H12.3228Z" fill="#2C6E7F"/>
</svg>
